<?xml version="1.0" encoding="utf-8"?>
<svg xmlns="http://www.w3.org/2000/svg" height="200" width="200" viewBox="0 0 200 200">
  <g>
    <rect height="200" width="200" fill="#ECECEC" />
    <path id="path1" transform="rotate(0,100,100) translate(39,50.6281220912933) scale(3.8125,3.8125)  " fill="#FFFFFF" d="M18.900024,9.0999987C22,9.0999987 24.600037,11.600001 24.600037,14.8 24.600037,17.999999 22.100037,20.500001 18.900024,20.500001 15.799988,20.500001 13.200012,17.999999 13.200012,14.8 13.200012,11.600001 15.799988,9.0999987 18.900024,9.0999987z M18.900024,5.8999988C14.100037,5.8999988 10.200012,9.7999956 10.200012,14.600002 10.200012,19.399995 14.100037,23.300023 18.900024,23.300023 23.700012,23.300023 27.600037,19.399995 27.600037,14.600002 27.600037,9.7999956 23.700012,5.8999988 18.900024,5.8999988z M26.299988,0C27,-1.786384E-07,27.600037,0.59999114,27.600037,1.2999888L27.600037,2.8999962 27.600037,3.0000023 29.700012,3.0000023C31,3.0000023,32,4.000003,32,5.2999923L32,23.600011C32,24.899999,31,25.900001,29.700012,25.900001L2.2999878,25.900001C1,25.900001,0,24.899999,0,23.600011L0,5.2999923C0,4.000003,1,3.0000023,2.2999878,3.0000023L3.4000244,3.0000023 3.4000244,2.8999962 3.4000244,2.1999983C3.4000244,1.0999916,4.2999878,0.29998785,5.2999878,0.29998779L13.200012,0.29998779C14.299988,0.29998785,15.100037,1.1999977,15.100037,2.1999983L15.100037,2.8999962 15.100037,3.0000023 25,3.0000023 25,2.8999962 25,1.2999888C25,1.0999916,25,0.89999449,25.100037,0.79998827L25.100037,0.69999742C25.400024,0.29998785,25.799988,-1.786384E-07,26.299988,0z" />
  </g>
</svg>

